<svg xmlns="http://www.w3.org/2000/svg" width="16" height="11" viewBox="0 0 15 11" xmlns:v="https://vecta.io/nano"><defs><clipPath id="A"><path d="M.004.004h14.992V11H.004zm0 0"/></clipPath></defs><g clip-path="url(#A)"><path d="M12.031 10.66c0 .063-.012.121-.039.18a1.13 1.13 0 0 1-.34.129 1.53 1.53 0 0 1-.348.039c-.055 0-.113 0-.176-.004a.71.71 0 0 1-.168-.02c-.02-.008-.039-.02-.059-.035s-.043-.027-.066-.027a.43.43 0 0 0-.156.031c-.047.02-.102.031-.156.031-.023 0-.051-.008-.074-.027s-.051-.027-.082-.035a.36.36 0 0 0-.113-.008c-.035.008-.078.008-.121.008-.062 0-.113-.008-.16-.023a.26.26 0 0 1-.125-.094c-.137-.016-.273-.043-.402-.082l-.395-.117-.391-.117c-.133-.039-.266-.062-.402-.074-.035-.039-.074-.07-.117-.09s-.074-.051-.098-.098c-.027 0-.047.008-.055.016s-.031.012-.059.012c-.094-.078-.191-.148-.301-.203l-.324-.164-.328-.156c-.109-.051-.207-.121-.301-.207h-.039c-.043.004-.082-.004-.113-.031a.17.17 0 0 0-.109-.039c-.027 0-.047.004-.066.012a.22.22 0 0 0-.074-.109c-.031-.031-.066-.059-.102-.082l-.102-.078c-.031-.023-.059-.059-.074-.098-.137-.051-.27-.109-.398-.184s-.238-.16-.336-.273c-.109-.012-.203-.047-.273-.105s-.137-.137-.195-.227c-.133-.043-.25-.105-.359-.176l-.324-.23c-.105-.078-.219-.152-.336-.219s-.25-.109-.395-.137c-.008-.039-.023-.07-.051-.09a.36.36 0 0 0-.094-.051l-.105-.039a.13.13 0 0 1-.07-.066c-.02 0-.035-.004-.051-.004s-.031-.008-.047-.008-.035.004-.055.008-.039.004-.055.004l.008-.027c0-.023-.004-.035-.02-.043s-.031-.012-.055-.016l-.055-.023c-.016-.012-.027-.039-.027-.078H2.68c-.059 0-.113-.012-.164-.035s-.102-.039-.164-.051a.96.96 0 0 0-.016.18v.152a4.16 4.16 0 0 0 .082.801c.055.281.141.531.254.754.113.043.211.102.293.176a1.85 1.85 0 0 1 .238.254c.008.156-.047.281-.156.387a.55.55 0 0 1-.391.156.42.42 0 0 1-.227-.062c-.066-.043-.121-.102-.168-.184-.031 0-.062.008-.09.023s-.059.02-.098.02c-.016 0-.031-.004-.047-.008l-.16-.254a.62.62 0 0 1-.102-.297c-.062-.027-.098-.078-.113-.152s-.043-.133-.094-.18l-.086-.762c-.035-.258-.051-.512-.051-.766l.004-.172.02-.184a.44.44 0 0 0-.047-.082.26.26 0 0 1-.043-.078l-.34.078c-.117.027-.238.039-.359.039a1.17 1.17 0 0 1-.277-.039C.27 6.801.188 6.766.125 6.723.082 6.695.051 6.641.031 6.566a.83.83 0 0 1-.027-.199c0-.098.016-.195.047-.293s.078-.187.133-.258c.266-.113.516-.254.75-.418l.684-.535c.004-.055.016-.113.027-.168s.02-.117.02-.18-.016-.133-.047-.195a.19.19 0 0 0 .047-.133c0-.051.016-.102.043-.148v-.051c0-.023-.004-.043-.004-.066s-.012-.047-.031-.066l.094-.66.031-.676c0-.016.008-.062.027-.137l.035-.16c.023-.129.039-.258.047-.387l.035-.383.035-.18A.9.9 0 0 0 2 1.121c0-.039-.008-.066-.02-.082S1.953 1 1.941.969c.035-.133.051-.262.055-.395l.031-.398a1.23 1.23 0 0 0 .219-.117C2.301.02 2.379 0 2.484 0H2.5a.48.48 0 0 0 .074.191l.117.176.113.172c.031.055.047.105.047.156a2.37 2.37 0 0 1-.023.316l-.043.313-.07.75-.102.754c.02.078.027.152.027.219 0 .102-.008.203-.027.305s-.023.207-.023.316a1.19 1.19 0 0 0 .012.16c.008.055.023.109.047.152a1.09 1.09 0 0 0 .5-.312 1.08 1.08 0 0 0 .066-.09.37.37 0 0 1 .082-.09 1.4 1.4 0 0 1 .176-.121l.184-.117.41-.301.406-.309 1.176-.957L6.758.637a.48.48 0 0 1 .098-.23.87.87 0 0 0 .133-.203c.105-.039.195-.098.27-.176a.78.78 0 0 0 .102.02c.035.004.074.004.109.004l.105.004c.035.004.066.012.094.031.004.082.012.16.023.23a.39.39 0 0 0 .098.191c0 .012.004.023.004.035s.004.023.004.035c0 .063-.016.113-.047.152s-.051.086-.059.145l-.426.441c-.141.148-.273.305-.391.473a.32.32 0 0 0-.117.043l-.094.074-.094.07a.33.33 0 0 1-.105.051c-.098.137-.211.258-.336.371l-.387.316-.387.313a2.96 2.96 0 0 0-.359.34 2.4 2.4 0 0 0-.328.203.82.82 0 0 0-.258.285h-.043c-.027 0-.051.004-.066.02s-.035.02-.066.02a11.14 11.14 0 0 1-.914.754 9.35 9.35 0 0 0-.91.766v.215c.094.055.191.109.305.156l.32.156c.109.059.207.117.305.184s.18.141.25.23c.012-.004.023-.008.039-.008.051 0 .09.016.117.047s.074.043.137.031c.023.09.074.156.148.195l.23.102.18.191c.055.059.133.098.238.113a.23.23 0 0 1 .023.078c.004.027.016.051.031.074a1.33 1.33 0 0 1 .301.145l.281.191.281.188a1.47 1.47 0 0 0 .309.141c.016.055.047.094.094.117s.086.059.109.102h.148c.016.031.039.055.066.082s.047.059.059.105l.145.047c.055.02.105.043.148.07a.21.21 0 0 1 .039.063c.008.023.023.043.043.059a.35.35 0 0 0 .152.063c.07.016.129.035.176.063.098.059.191.121.285.191a2.65 2.65 0 0 0 .297.203l.32.176c.055.027.102.059.148.094a1.14 1.14 0 0 0 .145.094c.098.047.203.074.316.09a.98.98 0 0 1 .305.086c.027.02.047.039.059.066s.031.047.059.063c.043.027.109.051.203.063s.172.027.23.059l.227.098c.07.031.148.066.223.113l.488.059.477.086.48.074a2.9 2.9 0 0 0 .488.027c0 .012.008.02.02.02s.027.004.039.004l.098.188c.027.063.039.129.039.195zM8.828 7.598c-.027.043-.059.086-.098.121l-.105.117a.34.34 0 0 1-.125.023c-.047 0-.094 0-.133-.004a.55.55 0 0 0-.113 0c-.039.004-.066.016-.086.039-.043-.012-.078-.035-.102-.066s-.059-.047-.113-.051c-.023-.008-.043-.008-.066 0l-.223-.309-.191-.305-.051-.637c-.004-.051-.012-.102-.023-.152l-.027-.145a1.08 1.08 0 0 1 .012-.164c.012-.055.016-.105.023-.152l.074-.48.074-.484a3.51 3.51 0 0 0 .031-.461c0-.164-.027-.316-.074-.457l-.008-.043.035-.113a.3.3 0 0 0 .027-.105c.012-.062 0-.109-.039-.137.016-.043.043-.074.082-.09s.063-.047.066-.098a.19.19 0 0 0 0-.066l.133-.047c.047-.016.094-.016.137-.004a.49.49 0 0 1 .187.07c.055.039.105.078.156.125.086.27.121.559.105.859l-.078.914-.074.895c-.012.293.031.563.129.813l.016.008a.06.06 0 0 0 .066-.031c.016-.023.039-.035.066-.027.02.012.035.016.039.016.023.113.059.219.109.32s.102.207.16.309zm6.168-4.414c-.012.066-.027.125-.047.172a.49.49 0 0 0-.012.191c-.055.008-.094.027-.125.059s-.055.066-.074.105l-.059.121c-.02.043-.043.082-.07.113a3.29 3.29 0 0 1 .074.621l.043.617c.027.262.066.52.125.77s.086.508.086.77l-.004.219-.004.215.004.141c.004.047.004.094.004.137a2.12 2.12 0 0 1-.059.492 4.45 4.45 0 0 0-.098.496c-.062.059-.121.129-.164.203l-.145.203c-.051.063-.109.117-.172.164s-.148.082-.246.098c-.016.059-.047.098-.094.129s-.086.066-.121.117h-.016c-.137 0-.254-.02-.352-.059s-.187-.086-.273-.137l-.258-.16c-.09-.059-.187-.102-.305-.137-.152-.129-.289-.273-.418-.43s-.266-.293-.426-.418c-.039-.113-.09-.207-.152-.281a2.38 2.38 0 0 1-.184-.254c-.027-.039-.047-.078-.059-.109l-.055-.121c-.016-.043-.043-.074-.078-.094a.38.38 0 0 1-.094-.059 1.95 1.95 0 0 0-.187-.484c-.082-.145-.18-.285-.289-.422-.031.063-.059.125-.078.199l-.051.211c-.016.07-.035.141-.062.215a.7.7 0 0 1-.094.188v.027c0 .027.012.043.031.051s.035.023.035.051c-.008.02-.008.027-.008.031-.027.023-.051.055-.062.086s-.043.055-.086.059l.008.086v.078c0 .164-.016.328-.055.492s-.051.332-.051.5v.109a.48.48 0 0 0 .008.109c.012.035.027.07.047.105s.035.063.035.094a.15.15 0 0 1-.051.109l.133.094a.62.62 0 0 1 .133.113.48.48 0 0 1 .102.137.27.27 0 0 1 .043.156c0 .098-.031.164-.09.203s-.133.07-.215.094l-.266.063c-.09.02-.164.059-.223.109h-.027c-.062 0-.113-.02-.148-.062s-.078-.059-.145-.059c-.105-.176-.176-.371-.211-.59s-.059-.426-.059-.625a4.64 4.64 0 0 1 .059-.73l.148-.719.188-.711.195-.707.008-.027c0-.027-.008-.047-.02-.059s-.023-.027-.023-.051l.063-.18a.95.95 0 0 0 .047-.168 3.97 3.97 0 0 0 .066-.488l.027-.496.016-.496c.008-.168.023-.332.055-.496l.121-.145a.56.56 0 0 1 .148-.137c.109.004.215.023.324.051s.215.074.313.137c.066.242.109.484.137.73a5.39 5.39 0 0 0 .125.73v.023c0 .027.016.043.047.039s.055.008.07.031c-.012.016-.02.035-.023.059v.066.145c.008.047.023.094.039.145a.13.13 0 0 0 .105.094c.027.18.07.348.125.5s.117.301.188.441l.23.422.25.438a1.76 1.76 0 0 1 .355.367l.297.398c.102.129.215.238.344.336s.297.156.504.18c.027-.023.047-.055.059-.094l.039-.121c.016-.039.035-.074.055-.105s.047-.055.086-.074l.035-.48c.016-.164.047-.32.102-.469-.027-.051-.039-.113-.039-.187 0-.055.004-.109.012-.16a1 1 0 0 0 .012-.152.45.45 0 0 0-.066-.262 1.43 1.43 0 0 1 .008-.125c.008-.043.023-.082.051-.121a2.12 2.12 0 0 1-.102-.359 2.01 2.01 0 0 1-.035-.379c0-.074.008-.152.023-.23-.035-.086-.055-.184-.066-.297l-.031-.348c-.012-.121-.027-.23-.051-.332a.49.49 0 0 0-.121-.246c.031-.051.047-.109.047-.18 0-.113-.016-.219-.047-.32a.99.99 0 0 1-.051-.324c0-.078.016-.156.051-.238l.355.039a2.13 2.13 0 0 0 .348.031.43.43 0 0 0 .113.109l.141.082c.047.023.098.051.145.082s.082.066.109.117zm0 0" fill="rgb(92.941176%,14.901961%,27.843137%)"/></g></svg>